<svg xmlns="http://www.w3.org/2000/svg" xmlns:xlink="http://www.w3.org/1999/xlink" width="500" zoomAndPan="magnify" viewBox="0 0 375 374.999991" height="500" preserveAspectRatio="xMidYMid meet" version="1.0"><defs><clipPath id="5b6166cf73"><path d="M 26.832031 26.832031 L 348.167969 26.832031 L 348.167969 348.167969 L 26.832031 348.167969 Z M 26.832031 26.832031 " clip-rule="nonzero"/></clipPath><clipPath id="2764ed1b99"><path d="M 187.5 26.832031 C 98.765625 26.832031 26.832031 98.765625 26.832031 187.5 C 26.832031 276.234375 98.765625 348.167969 187.5 348.167969 C 276.234375 348.167969 348.167969 276.234375 348.167969 187.5 C 348.167969 98.765625 276.234375 26.832031 187.5 26.832031 Z M 187.5 26.832031 " clip-rule="nonzero"/></clipPath><clipPath id="2af98802c5"><path d="M 105 63.675781 L 270 63.675781 L 270 223 L 105 223 Z M 105 63.675781 " clip-rule="nonzero"/></clipPath><clipPath id="75d16316da"><path d="M 115 235 L 260 235 L 260 311.175781 L 115 311.175781 Z M 115 235 " clip-rule="nonzero"/></clipPath></defs><g clip-path="url(#5b6166cf73)"><g clip-path="url(#2764ed1b99)"><path fill="#4ef7a5" d="M 26.832031 26.832031 L 348.167969 26.832031 L 348.167969 348.167969 L 26.832031 348.167969 Z M 26.832031 26.832031 " fill-opacity="1" fill-rule="nonzero"/></g></g><g clip-path="url(#2af98802c5)"><path fill="#ffffff" d="M 130.164062 166.277344 C 125.925781 172.136719 123.375 179.25 123.375 187.015625 C 123.375 206.625 139.257812 222.519531 158.871094 222.519531 C 170.636719 222.519531 180.960938 216.761719 187.421875 207.957031 C 193.890625 216.761719 204.21875 222.519531 215.96875 222.519531 C 235.597656 222.519531 251.46875 206.625 251.46875 187.015625 C 251.46875 179.25 248.917969 172.136719 244.6875 166.277344 C 258.839844 161.609375 269.105469 148.449219 269.105469 132.738281 C 269.105469 113.128906 253.226562 97.242188 233.609375 97.242188 C 229.851562 97.242188 226.292969 97.976562 222.917969 99.039062 C 222.828125 79.492188 207 63.675781 187.421875 63.675781 C 167.855469 63.675781 152.007812 79.492188 151.933594 99.039062 C 148.558594 97.976562 145 97.242188 141.246094 97.242188 C 121.625 97.242188 105.746094 113.128906 105.746094 132.738281 C 105.746094 148.449219 116.011719 161.609375 130.164062 166.277344 Z M 187.421875 132.136719 C 197.628906 132.136719 205.90625 140.40625 205.90625 150.609375 C 205.90625 160.808594 197.628906 169.078125 187.421875 169.078125 C 177.222656 169.078125 168.9375 160.808594 168.9375 150.609375 C 168.9375 140.40625 177.222656 132.136719 187.421875 132.136719 Z M 187.421875 132.136719 " fill-opacity="1" fill-rule="nonzero"/></g><g clip-path="url(#75d16316da)"><path fill="#ffffff" d="M 244.214844 235.984375 C 220.988281 236.144531 200.417969 247.289062 187.363281 264.457031 C 174.085938 247.464844 153.363281 236.597656 130.132812 236.746094 C 125.011719 236.785156 120.027344 237.355469 115.214844 238.410156 C 115.214844 238.824219 115.191406 239.234375 115.195312 239.65625 C 115.460938 279.414062 147.910156 311.441406 187.675781 311.175781 C 227.445312 310.90625 259.46875 278.457031 259.199219 238.691406 C 259.195312 238.273438 259.167969 237.863281 259.15625 237.449219 C 254.335938 236.460938 249.332031 235.953125 244.214844 235.984375 Z M 244.214844 235.984375 " fill-opacity="1" fill-rule="nonzero"/></g></svg>